<svg xmlns="http://www.w3.org/2000/svg" xmlns:xlink="http://www.w3.org/1999/xlink" viewBox="0 0 249.4 243.25"><defs><style>.cls-1,.cls-10,.cls-11,.cls-12,.cls-13,.cls-14,.cls-15,.cls-16,.cls-17,.cls-18,.cls-19,.cls-2,.cls-20,.cls-21,.cls-22,.cls-23,.cls-24,.cls-25,.cls-26,.cls-27,.cls-28,.cls-29,.cls-3,.cls-30,.cls-31,.cls-32,.cls-33,.cls-34,.cls-35,.cls-36,.cls-37,.cls-38,.cls-39,.cls-4,.cls-40,.cls-41,.cls-42,.cls-43,.cls-44,.cls-45,.cls-46,.cls-47,.cls-48,.cls-49,.cls-5,.cls-50,.cls-51,.cls-52,.cls-53,.cls-54,.cls-55,.cls-56,.cls-57,.cls-58,.cls-59,.cls-6,.cls-60,.cls-61,.cls-62,.cls-63,.cls-7,.cls-8,.cls-9{fill:none;stroke-miterlimit:10;}.cls-1{stroke:url(#linear-gradient);}.cls-2{stroke:url(#linear-gradient-2);}.cls-3{stroke:url(#linear-gradient-3);}.cls-4{stroke:url(#linear-gradient-4);}.cls-5{stroke:url(#linear-gradient-5);}.cls-6{stroke:url(#linear-gradient-6);}.cls-7{stroke:url(#linear-gradient-7);}.cls-8{stroke:url(#linear-gradient-8);}.cls-9{stroke:url(#linear-gradient-9);}.cls-10{stroke:url(#linear-gradient-10);}.cls-11{stroke:url(#linear-gradient-11);}.cls-12{stroke:url(#linear-gradient-12);}.cls-13{stroke:url(#linear-gradient-13);}.cls-14{stroke:url(#linear-gradient-14);}.cls-15{stroke:url(#linear-gradient-15);}.cls-16{stroke:url(#linear-gradient-16);}.cls-17{stroke:url(#linear-gradient-17);}.cls-18{stroke:url(#linear-gradient-18);}.cls-19{stroke:url(#linear-gradient-19);}.cls-20{stroke:url(#linear-gradient-20);}.cls-21{stroke:url(#linear-gradient-21);}.cls-22{stroke:url(#linear-gradient-22);}.cls-23{stroke:url(#linear-gradient-23);}.cls-24{stroke:url(#linear-gradient-24);}.cls-25{stroke:url(#linear-gradient-25);}.cls-26{stroke:url(#linear-gradient-26);}.cls-27{stroke:url(#linear-gradient-27);}.cls-28{stroke:url(#linear-gradient-28);}.cls-29{stroke:url(#linear-gradient-29);}.cls-30{stroke:url(#linear-gradient-30);}.cls-31{stroke:url(#linear-gradient-31);}.cls-32{stroke:url(#linear-gradient-32);}.cls-33{stroke:url(#linear-gradient-33);}.cls-34{stroke:url(#linear-gradient-34);}.cls-35{stroke:url(#linear-gradient-35);}.cls-36{stroke:url(#linear-gradient-36);}.cls-37{stroke:url(#linear-gradient-37);}.cls-38{stroke:url(#linear-gradient-38);}.cls-39{stroke:url(#linear-gradient-39);}.cls-40{stroke:url(#linear-gradient-40);}.cls-41{stroke:url(#linear-gradient-41);}.cls-42{stroke:url(#linear-gradient-42);}.cls-43{stroke:url(#linear-gradient-43);}.cls-44{stroke:url(#linear-gradient-44);}.cls-45{stroke:url(#linear-gradient-45);}.cls-46{stroke:url(#linear-gradient-46);}.cls-47{stroke:url(#linear-gradient-47);}.cls-48{stroke:url(#linear-gradient-48);}.cls-49{stroke:url(#linear-gradient-49);}.cls-50{stroke:url(#linear-gradient-50);}.cls-51{stroke:url(#linear-gradient-51);}.cls-52{stroke:url(#linear-gradient-52);}.cls-53{stroke:url(#linear-gradient-53);}.cls-54{stroke:url(#linear-gradient-54);}.cls-55{stroke:url(#linear-gradient-55);}.cls-56{stroke:url(#linear-gradient-56);}.cls-57{stroke:url(#linear-gradient-57);}.cls-58{stroke:url(#linear-gradient-58);}.cls-59{stroke:url(#linear-gradient-59);}.cls-60{stroke:url(#linear-gradient-60);}.cls-61{stroke:url(#linear-gradient-61);}.cls-62{stroke:url(#linear-gradient-62);}.cls-63{stroke:url(#linear-gradient-63);}.hola:hover{stroke:yellow;}</style><linearGradient id="linear-gradient" x1="52.71" y1="150.17" x2="246.28" y2="150.17" gradientUnits="userSpaceOnUse"><stop offset="0" stop-color="#cd69a9"/><stop offset="1" stop-color="#63cbe6"/></linearGradient><linearGradient id="linear-gradient-2" x1="51.09" y1="150.22" x2="241.81" y2="150.22" xlink:href="#linear-gradient"/><linearGradient id="linear-gradient-3" x1="49.43" y1="150.25" x2="237.34" y2="150.25" xlink:href="#linear-gradient"/><linearGradient id="linear-gradient-4" x1="47.77" y1="150.29" x2="232.88" y2="150.29" xlink:href="#linear-gradient"/><linearGradient id="linear-gradient-5" x1="46.09" y1="150.32" x2="228.41" y2="150.32" xlink:href="#linear-gradient"/><linearGradient id="linear-gradient-6" x1="44.4" y1="150.36" x2="223.95" y2="150.36" xlink:href="#linear-gradient"/><linearGradient id="linear-gradient-7" x1="42.71" y1="150.39" x2="219.48" y2="150.39" xlink:href="#linear-gradient"/><linearGradient id="linear-gradient-8" x1="41.01" y1="150.42" x2="215.02" y2="150.42" xlink:href="#linear-gradient"/><linearGradient id="linear-gradient-9" x1="39.31" y1="150.44" x2="210.55" y2="150.44" xlink:href="#linear-gradient"/><linearGradient id="linear-gradient-10" x1="37.61" y1="150.47" x2="206.09" y2="150.47" xlink:href="#linear-gradient"/><linearGradient id="linear-gradient-11" x1="35.91" y1="150.49" x2="201.62" y2="150.49" xlink:href="#linear-gradient"/><linearGradient id="linear-gradient-12" x1="34.21" y1="150.51" x2="197.15" y2="150.51" xlink:href="#linear-gradient"/><linearGradient id="linear-gradient-13" x1="32.51" y1="150.53" x2="192.69" y2="150.53" xlink:href="#linear-gradient"/><linearGradient id="linear-gradient-14" x1="30.81" y1="150.55" x2="188.22" y2="150.55" xlink:href="#linear-gradient"/><linearGradient id="linear-gradient-15" x1="29.12" y1="150.56" x2="183.76" y2="150.56" xlink:href="#linear-gradient"/><linearGradient id="linear-gradient-16" x1="27.43" y1="150.57" x2="179.3" y2="150.57" xlink:href="#linear-gradient"/><linearGradient id="linear-gradient-17" x1="25.74" y1="150.57" x2="174.83" y2="150.57" xlink:href="#linear-gradient"/><linearGradient id="linear-gradient-18" x1="24.05" y1="150.58" x2="170.37" y2="150.58" xlink:href="#linear-gradient"/><linearGradient id="linear-gradient-19" x1="22.36" y1="150.58" x2="165.9" y2="150.58" xlink:href="#linear-gradient"/><linearGradient id="linear-gradient-20" x1="20.68" y1="150.57" x2="161.44" y2="150.57" xlink:href="#linear-gradient"/><linearGradient id="linear-gradient-21" x1="19" y1="150.57" x2="156.98" y2="150.57" xlink:href="#linear-gradient"/><linearGradient id="linear-gradient-22" x1="17.32" y1="150.55" x2="152.52" y2="150.55" xlink:href="#linear-gradient"/><linearGradient id="linear-gradient-23" x1="15.64" y1="150.54" x2="148.06" y2="150.54" xlink:href="#linear-gradient"/><linearGradient id="linear-gradient-24" x1="13.95" y1="150.52" x2="143.6" y2="150.52" xlink:href="#linear-gradient"/><linearGradient id="linear-gradient-25" x1="12.26" y1="150.49" x2="139.15" y2="150.49" xlink:href="#linear-gradient"/><linearGradient id="linear-gradient-26" x1="10.56" y1="150.47" x2="134.7" y2="150.47" xlink:href="#linear-gradient"/><linearGradient id="linear-gradient-27" x1="8.85" y1="150.43" x2="130.27" y2="150.43" xlink:href="#linear-gradient"/><linearGradient id="linear-gradient-28" x1="7.13" y1="150.39" x2="125.87" y2="150.39" xlink:href="#linear-gradient"/><linearGradient id="linear-gradient-29" x1="5.39" y1="150.34" x2="121.55" y2="150.34" xlink:href="#linear-gradient"/><linearGradient id="linear-gradient-30" x1="3.63" y1="150.29" x2="117.38" y2="150.29" xlink:href="#linear-gradient"/><linearGradient id="linear-gradient-31" x1="1.83" y1="150.23" x2="113.49" y2="150.23" xlink:href="#linear-gradient"/><linearGradient id="linear-gradient-32" x1="0" y1="150.17" x2="109.92" y2="150.17" xlink:href="#linear-gradient"/><linearGradient id="linear-gradient-33" x1="0.73" y1="148.55" x2="113.61" y2="148.55" xlink:href="#linear-gradient"/><linearGradient id="linear-gradient-34" x1="1.46" y1="146.92" x2="117.54" y2="146.92" xlink:href="#linear-gradient"/><linearGradient id="linear-gradient-35" x1="2.19" y1="145.28" x2="121.71" y2="145.28" xlink:href="#linear-gradient"/><linearGradient id="linear-gradient-36" x1="2.92" y1="143.63" x2="126.06" y2="143.63" xlink:href="#linear-gradient"/><linearGradient id="linear-gradient-37" x1="3.65" y1="141.97" x2="130.56" y2="141.97" xlink:href="#linear-gradient"/><linearGradient id="linear-gradient-38" x1="4.38" y1="140.31" x2="135.12" y2="140.31" xlink:href="#linear-gradient"/><linearGradient id="linear-gradient-39" x1="5.11" y1="138.63" x2="139.69" y2="138.63" xlink:href="#linear-gradient"/><linearGradient id="linear-gradient-40" x1="5.84" y1="136.95" x2="144.26" y2="136.95" xlink:href="#linear-gradient"/><linearGradient id="linear-gradient-41" x1="6.57" y1="135.25" x2="148.84" y2="135.25" xlink:href="#linear-gradient"/><linearGradient id="linear-gradient-42" x1="7.3" y1="133.55" x2="153.41" y2="133.55" xlink:href="#linear-gradient"/><linearGradient id="linear-gradient-43" x1="8.03" y1="131.83" x2="157.98" y2="131.83" xlink:href="#linear-gradient"/><linearGradient id="linear-gradient-44" x1="8.76" y1="130.1" x2="162.55" y2="130.1" xlink:href="#linear-gradient"/><linearGradient id="linear-gradient-45" x1="9.49" y1="128.37" x2="167.12" y2="128.37" xlink:href="#linear-gradient"/><linearGradient id="linear-gradient-46" x1="10.22" y1="126.62" x2="171.69" y2="126.62" xlink:href="#linear-gradient"/><linearGradient id="linear-gradient-47" x1="10.95" y1="124.87" x2="176.26" y2="124.87" xlink:href="#linear-gradient"/><linearGradient id="linear-gradient-48" x1="11.68" y1="123.1" x2="180.83" y2="123.1" xlink:href="#linear-gradient"/><linearGradient id="linear-gradient-49" x1="12.41" y1="121.32" x2="185.4" y2="121.32" xlink:href="#linear-gradient"/><linearGradient id="linear-gradient-50" x1="13.14" y1="119.54" x2="189.98" y2="119.54" xlink:href="#linear-gradient"/><linearGradient id="linear-gradient-51" x1="13.87" y1="117.74" x2="194.55" y2="117.74" xlink:href="#linear-gradient"/><linearGradient id="linear-gradient-52" x1="14.59" y1="115.94" x2="199.12" y2="115.94" xlink:href="#linear-gradient"/><linearGradient id="linear-gradient-53" x1="15.29" y1="114.12" x2="203.69" y2="114.12" xlink:href="#linear-gradient"/><linearGradient id="linear-gradient-54" x1="15.96" y1="112.3" x2="208.26" y2="112.3" xlink:href="#linear-gradient"/><linearGradient id="linear-gradient-55" x1="16.6" y1="110.46" x2="212.83" y2="110.46" xlink:href="#linear-gradient"/><linearGradient id="linear-gradient-56" x1="17.2" y1="108.62" x2="217.4" y2="108.62" xlink:href="#linear-gradient"/><linearGradient id="linear-gradient-57" x1="17.77" y1="106.77" x2="221.97" y2="106.77" xlink:href="#linear-gradient"/><linearGradient id="linear-gradient-58" x1="18.3" y1="104.91" x2="226.54" y2="104.91" xlink:href="#linear-gradient"/><linearGradient id="linear-gradient-59" x1="18.8" y1="103.04" x2="231.12" y2="103.04" xlink:href="#linear-gradient"/><linearGradient id="linear-gradient-60" x1="19.25" y1="101.17" x2="235.69" y2="101.17" xlink:href="#linear-gradient"/><linearGradient id="linear-gradient-61" x1="19.67" y1="99.28" x2="240.26" y2="99.28" xlink:href="#linear-gradient"/><linearGradient id="linear-gradient-62" x1="20.06" y1="97.39" x2="244.83" y2="97.39" xlink:href="#linear-gradient"/><linearGradient id="linear-gradient-63" x1="20.42" y1="95.49" x2="249.4" y2="95.49" xlink:href="#linear-gradient"/></defs><title>Recurso 2</title><g id="Layer_1" data-name="Layer 1"><path class="hola cls-1" d="M244.53,133.39c14.55,47.78-102,109.36-151.95,109.36s9-38.1-34.6-92.58c-8.52-10.66-10.13-66.07,34.6-88.28C128.68,44,229.74,84.83,244.53,133.39Z"/><path class="hola cls-2" d="M240.1,134c14.08,47.85-98.22,108.68-148.16,108.68s4.84-37.11-35.82-92.58C47.55,138.41,47,83.32,91.94,61.82,128.48,44.47,225.79,85.39,240.1,134Z"/><path class="hola cls-3" d="M235.67,134.61c13.61,47.92-94.44,108-144.38,108s.94-36.4-37-92.58c-8.63-12.77-8.11-67.64,37-88.28C128.23,44.86,221.84,86,235.67,134.61Z"/><path class="hola cls-4" d="M231.24,135.22c13.14,48-90.65,107.32-140.59,107.32S87.89,206.63,52.42,150c-8.69-13.88-7.1-68.43,38.23-88.28C128,45.32,217.88,86.52,231.24,135.22Z"/><path class="hola cls-5" d="M226.81,135.83C239.48,183.89,139.94,242.47,90,242.47s-6.28-35.61-39.44-92.58c-8.75-15-6.08-69.2,39.44-88.28C127.79,45.77,213.93,87.09,226.81,135.83Z"/><path class="hola cls-6" d="M222.38,136.44c12.2,48.13-83.08,106-133,106s-9.63-35.47-40.65-92.58c-8.8-16.2-5.06-70,40.65-88.28C127.58,46.24,210,87.66,222.38,136.44Z"/><path class="hola cls-7" d="M218,137.05c11.73,48.2-79.3,105.28-129.24,105.28s-12.83-35.44-41.86-92.58C38,132.36,42.83,79,88.71,61.47,127.37,46.7,206,88.22,218,137.05Z"/><path class="hola cls-8" d="M213.52,137.66c11.26,48.27-75.51,104.6-125.45,104.6S72.17,206.75,45,149.68c-8.86-18.61-3-71.5,43.07-88.28C127.16,47.17,202.07,88.79,213.52,137.66Z"/><path class="hola cls-9" d="M209.09,138.27c10.79,48.34-71.73,103.92-121.67,103.92s-18.85-35.65-44.28-92.58c-8.86-19.84-2-72.26,44.28-88.28C127,47.64,198.12,89.35,209.09,138.27Z"/><path class="hola cls-10" d="M204.66,138.88C215,187.29,136.72,242.12,86.78,242.12s-21.7-35.86-45.49-92.58c-8.85-21.09-.92-73,45.49-88.27C126.76,48.11,194.16,89.92,204.66,138.88Z"/><path class="hola cls-11" d="M200.23,139.49c9.85,48.48-64.16,102.56-114.1,102.56s-24.45-36.12-46.69-92.58c-8.81-22.35.11-73.75,46.69-88.27C126.56,48.59,190.21,90.49,200.23,139.49Z"/><path class="hola cls-12" d="M195.8,140.11C205.18,188.65,135.43,242,85.49,242S58.35,205.57,37.58,149.4c-8.74-23.63,1.16-74.49,47.91-88.27C126.36,49.08,186.26,91.05,195.8,140.11Z"/><path class="hola cls-13" d="M191.37,140.72c8.91,48.61-56.59,101.19-106.53,101.19S55.1,205.17,35.73,149.33c-8.65-24.92,2.2-75.23,49.11-88.27C126.16,49.57,182.31,91.62,191.37,140.72Z"/><path class="hola cls-14" d="M186.94,141.33C195.38,190,134.14,241.84,84.2,241.84s-32.28-37.09-50.33-92.57C25.35,123,37.13,73.3,84.2,61,126,50.06,178.35,92.19,186.94,141.33Z"/><path class="hola cls-15" d="M182.51,141.94c8,48.75-49,99.83-99,99.83S48.79,204.32,32,149.2c-8.38-27.54,4.3-76.69,51.53-88.28C125.78,50.56,174.4,92.75,182.51,141.94Z"/><path class="hola cls-16" d="M178.08,142.55c7.51,48.82-45.23,99.16-95.17,99.16s-37.2-37.83-52.74-92.58C22,120.28,35.52,71.72,82.91,60.85,125.59,51.06,170.45,93.32,178.08,142.55Z"/><path class="hola cls-17" d="M173.65,143.16c7,48.89-41.44,98.48-91.39,98.48s-39.58-38.21-53.95-92.58c-8-30.17,6.4-78.12,54-88.28C125.4,51.57,166.49,93.88,173.65,143.16Z"/><path class="hola cls-18" d="M169.22,143.77c6.57,49-37.66,97.8-87.6,97.8S39.69,203,26.46,149c-7.72-31.5,7.45-78.83,55.16-88.28C125.21,52.08,162.54,94.45,169.22,143.77Z"/><path class="hola cls-19" d="M164.79,144.38c6.1,49-33.87,97.12-83.82,97.12s-44.23-39-56.37-92.58C17.17,116.09,33.11,69.38,81,60.64,125,52.6,158.59,95,164.79,144.38Z"/><path class="hola cls-20" d="M160.36,145c5.63,49.1-30.09,96.44-80,96.44s-46.51-39.34-57.58-92.58c-7.1-34.16,9.56-80.23,57.58-88.28C124.83,53.12,154.63,95.58,160.36,145Z"/><path class="hola cls-21" d="M155.93,145.6c5.16,49.17-26.3,95.76-76.25,95.76s-48.75-39.7-58.78-92.58C14.16,113.29,31.51,67.85,79.68,60.5,124.64,53.64,150.68,96.15,155.93,145.6Z"/><path class="hola cls-22" d="M151.5,146.21C156.19,195.46,129,241.29,79,241.29s-51-40.06-60-92.58c-6.33-36.83,11.67-81.62,60-88.28C124.45,54.18,146.73,96.71,151.5,146.21Z"/><path class="hola cls-23" d="M147.07,146.82c4.22,49.32-18.73,94.4-68.68,94.4s-53.16-40.4-61.2-92.58c-5.89-38.16,12.72-82.3,61.2-88.28C124.27,54.71,142.77,97.28,147.07,146.82Z"/><path class="hola cls-24" d="M142.64,147.43c3.75,49.39-14.95,93.72-64.89,93.72s-55.33-40.72-62.42-92.58c-5.4-39.49,13.77-83,62.42-88.28C124.08,55.25,138.82,97.85,142.64,147.43Z"/><path class="hola cls-25" d="M138.21,148c3.28,49.46-11.16,93-61.1,93S19.63,200,13.48,148.5C8.61,107.68,28.3,64.84,77.11,60.22,123.89,55.8,134.87,98.41,138.21,148Z"/><path class="hola cls-26" d="M133.78,148.65C136.59,198.18,126.4,241,76.46,241s-59.61-41.33-64.84-92.58C7.32,106.28,27.5,64.1,76.46,60.16,123.7,56.35,130.91,99,133.78,148.65Z"/><path class="hola cls-27" d="M129.35,149.26c2.34,49.6-3.59,91.68-53.53,91.68s-61.72-41.6-66-92.58c-3.69-43.47,16.92-85,66.05-88.27C123.51,56.9,127,99.55,129.35,149.26Z"/><path class="hola cls-28" d="M124.92,149.88c1.87,49.66.19,91-49.75,91S11.35,199,7.92,148.29c-3-44.78,18-85.66,67.25-88.27C123.31,57.46,123,100.11,124.92,149.88Z"/><path class="hola cls-29" d="M120.49,150.49c1.4,49.73,4,90.31-46,90.31S8.62,198.72,6.06,148.22C3.72,102.14,25.08,61.9,74.53,60,123.12,58,119.05,100.68,120.49,150.49Z"/><path class="hola cls-30" d="M116.06,151.1c.93,49.8,7.76,89.63-42.18,89.63s-68-42.29-69.67-92.57c-1.6-47.39,20.06-87,69.67-88.28C122.93,58.59,115.1,101.24,116.06,151.1Z"/><path class="hola cls-31" d="M111.62,151.71c.47,49.87,11.56,88.95-38.38,88.95s-70-42.47-70.89-92.57C1.53,99.42,23.46,60.53,73.24,59.81,122.73,59.23,111.15,101.81,111.62,151.71Z"/><path class="hola cls-32" d="M107.19,152.32c0,49.94,15.34,88.28-34.6,88.28S.5,198,.5,148,22.65,59.74,72.59,59.74,107.19,102.38,107.19,152.32Z"/><path class="hola cls-33" d="M111.77,150c0,49.94,10.28,89-39.66,89S1.23,196.34,1.23,146.4s21-87.62,70.88-88.28C124.4,57.43,111.77,100,111.77,150Z"/><path class="hola cls-34" d="M116.34,147.64c0,49.94,5.24,89.72-44.71,89.72S2,194.72,2,144.78s19.84-87,69.67-88.27C126.28,55.11,116.34,97.69,116.34,147.64Z"/><path class="hola cls-35" d="M120.91,145.3c0,49.94.19,90.44-49.76,90.44S2.69,193.11,2.69,143.17,21.37,56.74,71.15,54.89C128.16,52.76,120.91,95.35,120.91,145.3Z"/><path class="hola cls-36" d="M125.48,143c0,49.94-4.86,91.17-54.8,91.17S3.42,191.49,3.42,141.55,21,55.67,70.68,53.27C130.05,50.4,125.48,93,125.48,143Z"/><path class="hola cls-37" d="M130.05,140.62c0,49.94-9.91,91.89-59.85,91.89s-66-42.64-66-92.58S20.54,54.58,70.2,51.65C131.94,48,130.05,90.67,130.05,140.62Z"/><path class="hola cls-38" d="M134.62,138.27c0,49.95-15,92.62-64.9,92.62S4.88,188.26,4.88,138.31,20.12,53.46,69.72,50C133.83,45.62,134.62,88.33,134.62,138.27Z"/><path class="hola cls-39" d="M139.19,135.93c0,49.95-20,93.35-69.95,93.35S5.61,186.64,5.61,136.7,19.7,52.31,69.24,48.42C135.72,43.2,139.19,86,139.19,135.93Z"/><path class="hola cls-40" d="M143.76,133.59c0,49.95-25.06,94.07-75,94.07S6.34,185,6.34,135.08s13-83.93,62.42-88.28C137.62,40.76,143.76,83.65,143.76,133.59Z"/><path class="hola cls-41" d="M148.34,131.25c0,49.95-30.12,94.79-80.06,94.79S7.07,183.41,7.07,133.46,18.87,50,68.28,45.19C139.51,38.3,148.34,81.31,148.34,131.25Z"/><path class="hola cls-42" d="M152.91,128.91c0,49.94-35.17,95.52-85.11,95.52s-60-42.64-60-92.58,10.65-83.08,60-88.28C141.41,35.82,152.91,79,152.91,128.91Z"/><path class="hola cls-43" d="M157.48,126.57c0,49.94-40.22,96.24-90.16,96.24S8.53,180.17,8.53,130.23,18,47.55,67.32,42C143.3,33.32,157.48,76.63,157.48,126.57Z"/><path class="hola cls-44" d="M162.05,124.23c0,49.94-45.27,97-95.21,97S9.26,178.56,9.26,128.61s8.35-82.29,57.58-88.27C145.19,30.81,162.05,74.29,162.05,124.23Z"/><path class="hola cls-45" d="M166.62,121.89c0,49.94-50.31,97.69-100.26,97.69S10,176.94,10,127s7.2-81.91,56.37-88.28C147.08,28.27,166.62,72,166.62,121.89Z"/><path class="hola cls-46" d="M171.19,119.55c0,49.94-55.36,98.41-105.31,98.41s-55.16-42.64-55.16-92.58,6-81.54,55.16-88.28C149,25.71,171.19,69.61,171.19,119.55Z"/><path class="hola cls-47" d="M175.76,117.21c0,49.94-60.41,99.13-110.35,99.13s-54-42.64-54-92.58,4.89-81.18,54-88.27C150.85,23.14,175.76,67.27,175.76,117.21Z"/><path class="hola cls-48" d="M180.33,114.87c0,49.94-65.46,99.85-115.4,99.85s-52.75-42.63-52.75-92.57,3.73-80.84,52.75-88.28C152.72,20.55,180.33,64.93,180.33,114.87Z"/><path class="hola cls-49" d="M184.9,112.53c0,49.94-70.51,100.58-120.45,100.58s-51.54-42.64-51.54-92.58S15.48,40,64.45,32.25C154.6,17.93,184.9,62.59,184.9,112.53Z"/><path class="hola cls-50" d="M189.48,110.19c0,49.94-75.57,101.3-125.51,101.3s-50.33-42.64-50.33-92.58S15.05,38.74,64,30.63C156.47,15.3,189.48,60.25,189.48,110.19Z"/><path class="hola cls-51" d="M194.05,107.85c0,49.94-80.62,102-130.56,102s-49.12-42.63-49.12-92.58S14.61,37.45,63.49,29C158.34,12.65,194.05,57.91,194.05,107.85Z"/><path class="hola cls-52" d="M198.62,105.51C198.62,155.45,113,208.26,63,208.26S15.1,165.62,15.1,115.68,14.18,36.15,63,27.4C160.2,10,198.62,55.56,198.62,105.51Z"/><path class="hola cls-53" d="M203.19,103.17c0,49.94-90.72,103.47-140.66,103.47S15.83,164,15.83,114.06s-2.09-79.21,46.7-88.28C162.05,7.29,203.19,53.22,203.19,103.17Z"/><path class="hola cls-54" d="M207.76,100.83C207.76,150.77,112,205,62.05,205s-45.49-42.63-45.49-92.58S13.3,33.54,62.05,24.17C163.91,4.59,207.76,50.88,207.76,100.83Z"/><path class="hola cls-55" d="M212.33,98.49c0,49.94-100.82,104.92-150.76,104.92s-44.28-42.64-44.28-92.58S12.86,32.22,61.57,22.55C165.75,1.86,212.33,48.54,212.33,98.49Z"/><path class="hola cls-56" d="M216.9,96.14c0,50-105.86,105.65-155.81,105.65S18,159.15,18,109.21,12.42,30.9,61.09,20.93C167.59-.88,216.9,46.2,216.9,96.14Z"/><path class="hola cls-57" d="M221.47,93.8c0,50-110.91,106.37-160.86,106.37s-41.85-42.63-41.85-92.58S12,29.58,60.61,19.32C169.43-3.64,221.47,43.86,221.47,93.8Z"/><path class="hola cls-58" d="M226,91.46c0,50-116,107.1-165.9,107.1S19.49,155.92,19.49,106s-8-77.73,40.65-88.28C171.26-6.42,226,41.52,226,91.46Z"/><path class="hola cls-59" d="M230.62,89.12c0,49.94-121,107.82-171,107.82S20.22,154.3,20.22,104.36,11.07,26.92,59.66,16.08C173.08-9.22,230.62,39.18,230.62,89.12Z"/><path class="hola cls-60" d="M235.19,86.78c0,49.94-126.07,108.54-176,108.54S21,152.68,21,102.74,10.62,25.59,59.18,14.46C174.89-12,235.19,36.84,235.19,86.78Z"/><path class="hola cls-61" d="M239.76,84.44c0,49.94-131.12,109.26-181.06,109.26s-37-42.63-37-92.57-11.52-76.88,37-88.28C176.7-14.87,239.76,34.5,239.76,84.44Z"/><path class="hola cls-62" d="M244.33,82.1c0,49.94-136.17,110-186.11,110S22.41,149.45,22.41,99.51,9.71,22.91,58.22,11.23C178.51-17.72,244.33,32.16,244.33,82.1Z"/><path class="hola cls-63" d="M248.9,79.76c0,49.94-141.22,110.71-191.16,110.71s-34.6-42.64-34.6-92.58S9.25,21.56,57.74,9.61C180.3-20.59,248.9,29.82,248.9,79.76Z"/></g></svg>
