<svg xmlns="http://www.w3.org/2000/svg" viewBox="0 0 228 188.69"><defs><style>.cls-1{fill:#414042;}</style></defs><title>Recurso 5v2</title><g id="Capa_2" data-name="Capa 2"><g id="Layer_1" data-name="Layer 1"><path class="cls-1" d="M68.93,67.59H41.24V51.27h75.4V67.59H89V137.8h-20Z"/><path class="cls-1" d="M164.35,137.8l-14.58-20.4-15.08,20.4h-21l25.59-33.5-24.72-33h21.63L150.26,90.7l14.46-19.41h20.52L160.52,103.8l25.71,34Z"/><path class="cls-1" d="M45.06,188.69c-9.53,0-16.74-2.34-21.41-6.94s-7-11.61-7-20.85V113.06c0-8.64-4.39-13.4-12.36-13.4H0V89H4.28c8,0,12.36-4.75,12.36-13.39V27.79c0-9.24,2.36-16.26,7-20.86S35.53,0,45.06,0h6.15V10.43H49c-11.86,0-18.39,6.83-18.39,19.23V75.21c0,5.1-.76,8.9-2.25,11.31s-3.73,3.92-7.08,5L12,94.34l9.24,2.87c3.34,1,5.66,2.65,7.07,5s2.26,6.22,2.26,11.32V159c0,12.4,6.53,19.23,18.39,19.23h2.21v10.43Z"/><path class="cls-1" d="M177,188.69V178.26h2c12.13,0,18.81-6.83,18.81-19.23V113.48c0-5.24.73-9.09,2.16-11.43s3.63-3.81,7-4.84l9.25-2.87-9.25-2.86c-3.34-1-5.61-2.61-7-4.83s-2.17-6.2-2.17-11.44V29.66c0-12.4-6.68-19.23-18.81-19.23h-2V0h6.15c9.54,0,16.78,2.34,21.53,7s7.09,11.6,7.09,20.84V75.63c0,11.65,7.62,13.39,12.16,13.39H228V99.66h-4.06c-4.54,0-12.16,1.74-12.16,13.4V160.9c0,9.23-2.39,16.24-7.1,20.84s-12,6.95-21.52,6.95Z"/></g></g></svg>